<svg xmlns="http://www.w3.org/2000/svg" viewBox="0 0 128 128" width="128" height="128">
  <defs>
    <linearGradient id="grad128" x1="0%" y1="0%" x2="100%" y2="100%">
      <stop offset="0%" style="stop-color:#4285f4;stop-opacity:1" />
      <stop offset="100%" style="stop-color:#34a853;stop-opacity:1" />
    </linearGradient>
  </defs>
  <rect width="128" height="128" rx="20" fill="url(#grad128)"/>
  <g fill="white">
    <!-- Sync circle with arrows -->
    <path d="M64 28c-19.9 0-36 16.1-36 36h10c0-14.4 11.6-26 26-26s26 11.6 26 26h10c0-19.9-16.1-36-36-36z"/>
    <path d="M64 100c19.9 0 36-16.1 36-36h-10c0 14.4-11.6 26-26 26s-26-11.6-26-26h-10c0 19.9 16.1 36 36 36z"/>
    <!-- Arrow heads -->
    <polygon points="90,54 100,64 110,54"/>
    <polygon points="18,74 28,64 38,74"/>
    <!-- Tab icon in center -->
    <rect x="52" y="52" width="24" height="24" rx="4" fill="none" stroke="white" stroke-width="3"/>
    <rect x="56" y="48" width="16" height="6" rx="2" fill="white"/>
  </g>
</svg>
