<svg xmlns="http://www.w3.org/2000/svg" viewBox="0 0 48 48" width="48" height="48">
  <defs>
    <linearGradient id="grad48" x1="0%" y1="0%" x2="100%" y2="100%">
      <stop offset="0%" style="stop-color:#4285f4;stop-opacity:1" />
      <stop offset="100%" style="stop-color:#34a853;stop-opacity:1" />
    </linearGradient>
  </defs>
  <rect width="48" height="48" rx="8" fill="url(#grad48)"/>
  <g fill="white">
    <!-- Sync arrows -->
    <path d="M24 10c-7.7 0-14 6.3-14 14h4c0-5.5 4.5-10 10-10s10 4.5 10 10h4c0-7.7-6.3-14-14-14z"/>
    <path d="M24 38c7.7 0 14-6.3 14-14h-4c0 5.5-4.5 10-10 10s-10-4.5-10-10h-4c0 7.7 6.3 14 14 14z"/>
    <!-- Arrows -->
    <polygon points="34,20 38,24 42,20"/>
    <polygon points="6,28 10,24 14,28"/>
  </g>
</svg>
